<svg id="Layer_1" data-name="Layer 1" xmlns="http://www.w3.org/2000/svg" xmlns:xlink="http://www.w3.org/1999/xlink" viewBox="0 0 869.32 1058.17"><defs><style>.cls-1{fill:none;}.cls-2{clip-path:url(#clip-path);}.cls-3{fill:#18463e;}.cls-4{fill:#fff;}.cls-5{fill:#53d38e;}.cls-6{fill:#bed5d2;}.cls-7{fill:#268d65;}.cls-8{fill:#f9f7f7;stroke-width:25px;}.cls-8,.cls-9{stroke:#18463e;stroke-miterlimit:10;}.cls-9{isolation:isolate;font-size:355.48px;fill:#00ff6d;stroke-width:18px;font-family:Poppins-Black, Poppins;font-weight:800;}</style><clipPath id="clip-path" transform="translate(-40.79 -41.41)"><rect class="cls-1" x="62.82" y="41.41" width="847.27" height="879.14"/></clipPath></defs><g class="cls-2"><path class="cls-3" d="M826.19,109.66C721.13,13,557.61,19.83,461,124.89l-.55.6L308,292.1l-24.86,27.17L130.9,485.63C34.24,591.32,41.3,755.3,146.69,852.29q7,6.44,14.3,12.24c3.27,2.58,6.55,5.09,9.91,7.49a256.89,256.89,0,0,0,36.49,22q5.42,2.67,10.9,5c3.65,1.61,7.35,3.11,11.06,4.54a259.24,259.24,0,0,0,194.8-4.15c2.05-.88,4.07-1.78,6.1-2.72q9.06-4.19,17.86-9.12T465.36,877q5.65-3.78,11.1-7.89a259.81,259.81,0,0,0,36-32.65L642.21,694.67l22.48-24.57,12.44-13.6,12.42-13.57,18.28-20L842,476.32c96.65-105.7,89.59-269.66-15.79-366.66Zm-210,558.89-1.06,1.18L485.36,811.54C402.54,902,262.11,908.1,171.71,825.28a222,222,0,0,1-65.71-111c-.46-1.85-.88-3.67-1.27-5.51s-.78-3.66-1.12-5.51-.69-3.68-1-5.53a.14.14,0,0,1,0-.09q-.45-2.75-.83-5.46c-.07-.49-.14-.95-.19-1.43-.3-2.12-.55-4.27-.78-6.39-.27-2.63-.5-5.23-.69-7.83-.09-1.31-.18-2.63-.23-3.92s-.14-2.61-.18-3.92c-.09-2.58-.14-5.19-.14-7.77,0-7.1.32-14.17,1-21.2.28-3,.62-5.9,1-8.83a207.55,207.55,0,0,1,4.14-22.12c.59-2.47,1.21-4.91,1.9-7.33a220.28,220.28,0,0,1,17.48-44.14c1.31-2.49,2.66-4.95,4.07-7.4A223.32,223.32,0,0,1,158,510.54L310.23,344.19l275.9,253.68.83.76,50.62,46.53ZM814.87,451.4,681.8,596.85,680.72,598l-18.28,20-49.5-45.53-.71-.64L335.08,317,487.52,150.43A222.1,222.1,0,0,1,688.27,81.38a211.23,211.23,0,0,1,22.37,5c4.53,1.24,9,2.65,13.5,4.19A222.82,222.82,0,0,1,814.87,451.4Z" transform="translate(-40.79 -41.41)"/><path class="cls-4" d="M873.27,301a222.26,222.26,0,0,1-58.42,150.4L681.78,596.85,680.7,598l-18.28,20-49.5-45.51-.72-.65L335.06,317,487.5,150.42a222.08,222.08,0,0,1,200.74-69,217.08,217.08,0,0,1,22.38,5c4.53,1.24,9,2.65,13.49,4.19A222.44,222.44,0,0,1,873.27,301Z" transform="translate(-40.79 -41.41)"/><path class="cls-5" d="M637.56,645.16l-21.43,23.4-1,1.17L485.33,811.55c-82.83,90.39-223.26,96.52-313.66,13.69a222,222,0,0,1-65.67-111c-.46-1.84-.87-3.66-1.26-5.51s-.78-3.66-1.13-5.5-.69-3.69-1-5.54a.14.14,0,0,1,0-.09c-.3-1.82-.57-3.64-.83-5.46-.37-2.61-.71-5.22-1-7.81s-.51-5.23-.69-7.84c-.1-1.31-.19-2.63-.23-3.92s-.14-2.6-.19-3.92c-.09-2.58-.13-5.19-.13-7.76,0-7.1.32-14.18,1-21.21.27-3,.62-5.89,1-8.82a213.36,213.36,0,0,1,4.14-22.13c.6-2.47,1.22-4.91,1.91-7.33a221,221,0,0,1,17.47-44.13q2-3.74,4.07-7.4A223.48,223.48,0,0,1,158,510.55L310.21,344.19l275.9,253.68.82.76Z" transform="translate(-40.79 -41.41)"/><path class="cls-6" d="M637.58,645.16l-21.42,23.39-48.91-49L587,598.63Z" transform="translate(-40.79 -41.41)"/><path class="cls-6" d="M873.3,301a222.16,222.16,0,0,1-58.43,150.4L681.8,596.85,680.72,598l-18.28,20-49.5-45.53-.71-.64L748.84,427c28-29.71,49.16-65.48,60.33-104.79,41-143.86-78.54-223.63-98.56-235.82,4.53,1.24,9,2.65,13.5,4.19A222.44,222.44,0,0,1,873.3,301Z" transform="translate(-40.79 -41.41)"/><path class="cls-7" d="M637.61,645.16l-21.43,23.4-1.06,1.18L485.38,811.55C402.57,902,262.14,908.13,171.73,825.32A222,222,0,0,1,106,714.26c-.46-1.84-.87-3.66-1.27-5.5s-.78-3.67-1.12-5.51-.69-3.69-1-5.54a.14.14,0,0,1,0-.09q-.45-2.73-.83-5.46c-.07-.49-.14-.94-.19-1.43,7.22,12.4,88.43,145.2,237.6,102.56,39.25-11.2,74.91-32.4,104.54-60.5L586.15,597.87l.83.76Z" transform="translate(-40.79 -41.41)"/><path class="cls-4" d="M205.47,604.6a6.75,6.75,0,0,1-4.87-2,6.92,6.92,0,0,1,0-9.77l16.67-16.71a6.9,6.9,0,0,1,9.75,9.77L210.35,602.6A6.85,6.85,0,0,1,205.47,604.6Z" transform="translate(-40.79 -41.41)"/><path class="cls-4" d="M198.72,725.57a6.89,6.89,0,0,1-6.25-4c-16.65-35.45-7.68-83.41-7.29-85.43a6.89,6.89,0,1,1,13.54,2.6c-.09.46-8.48,45.58,6.21,76.93a6.89,6.89,0,0,1-3.3,9.18h0a7.06,7.06,0,0,1-3,.67Z" transform="translate(-40.79 -41.41)"/><path class="cls-4" d="M233.64,779.28a6.75,6.75,0,0,1-4.87-2L212.49,761a6.9,6.9,0,1,1,9.75-9.77h0l16.28,16.31a6.93,6.93,0,0,1,0,9.78A6.85,6.85,0,0,1,233.64,779.28Z" transform="translate(-40.79 -41.41)"/></g><path class="cls-8" d="M145.44,580H733.18c50.9,0,92.15,48.94,92.15,109.3V799.58c0,60.37-41.25,109.31-92.15,109.31H145.44c-50.89,0-92.15-48.94-92.15-109.31V689.3C53.29,628.94,94.55,580,145.44,580Z" transform="translate(-40.79 -41.41)"/><text class="cls-9" transform="translate(80.86 826.28)">REP</text></svg>