<svg xmlns="http://www.w3.org/2000/svg" xmlns:xlink="http://www.w3.org/1999/xlink" viewBox="0 0 1000 1000"><defs><style>.cls-1{fill:url(#linear-gradient);}.cls-2{fill:url(#linear-gradient-2);}.cls-3{fill:url(#linear-gradient-3);}.cls-4{fill:url(#linear-gradient-4);}.cls-5{fill:#ff3e4c;}.cls-6{fill:#ededed;}</style><linearGradient id="linear-gradient" x1="976.1" y1="767.8" x2="45.11" y2="243.63" gradientTransform="matrix(1, 0, 0, -1, 0, 1002)" gradientUnits="userSpaceOnUse"><stop offset="0" stop-color="#b50cfb"/><stop offset="0.49" stop-color="#3d6dff"/><stop offset="1" stop-color="#4dc5ca"/></linearGradient><linearGradient id="linear-gradient-2" x1="994.27" y1="704.86" x2="-10.68" y2="373.86" xlink:href="#linear-gradient"/><linearGradient id="linear-gradient-3" x1="1084.29" y1="705.7" x2="202.77" y2="2.3" xlink:href="#linear-gradient"/><linearGradient id="linear-gradient-4" x1="934.89" y1="742.45" x2="25.23" y2="378.68" xlink:href="#linear-gradient"/></defs><g id="Layer_4" data-name="Layer 4"><path class="cls-1" d="M888.08,376.59V722L504,943.78,119.66,722V278.24L504,56.22,799.32,226.8l44.51-25.59L504,4.78,75.15,252.39V747.61L504,995.22,932.85,747.61V350.74Z"/><path class="cls-2" d="M396.34,722H332.1V506.39H546.4a77.34,77.34,0,0,0,76.22-77A78.53,78.53,0,0,0,617,400.05a74.6,74.6,0,0,0-16.79-24.53,77.4,77.4,0,0,0-24.53-16.79,73.77,73.77,0,0,0-29.31-5.86H332.1V287.3H546.66a142.9,142.9,0,0,1,141.8,141.8,136.94,136.94,0,0,1-25.06,80.23A141.9,141.9,0,0,1,601.57,560a241.85,241.85,0,0,1-76.76,11.46H396.34Z"/><path class="cls-3" d="M687.11,716.69h-74.9l-57.83-101a250.72,250.72,0,0,0,67.16-13.6Z"/><path class="cls-4" d="M843.3,304.63l44.51,24.79,44.24-24.52v-52l-44.24-25.59-44.24,25.59v51.71Z"/><polygon class="cls-5" points="218.42 903.67 203.78 860.44 156.45 860.44 141.81 903.67 13.66 903.67 124.42 597.56 236.51 597.56 347.26 903.67 218.42 903.67"/><polygon class="cls-5" points="517.22 903.67 517.22 896.33 514.48 903.67 423.79 903.67 420.67 895.34 420.67 903.67 299.68 903.67 299.68 597.56 421.46 597.56 469.32 715.63 516.7 597.56 638.21 597.56 638.21 903.67 517.22 903.67"/><polygon class="cls-5" points="837.25 903.67 837.25 896.33 834.52 903.67 743.82 903.67 740.71 895.35 740.71 903.67 619.72 903.67 619.72 597.56 741.5 597.56 789.36 715.63 836.73 597.56 958.24 597.56 958.24 903.67 837.25 903.67"/><path class="cls-6" d="M225.78,829.75H134.44L119.8,873H57.4L146,628.25h69L303.53,873h-63.1Zm-15.34-46-30.33-89.59-30,89.59Z"/><path class="cls-6" d="M607.52,628.25V873H547.91V726.21L493.18,873H445.07L390,725.86V873H330.37V628.25h70.42l68.68,169.43,68-169.43Z"/><path class="cls-6" d="M927.56,628.25V873H867.94V726.21L813.21,873H765.1L710,725.86V873H650.4V628.25h70.43L789.5,797.68l68-169.43Z"/></g></svg>