<svg id="Layer_1" data-name="Layer 1" xmlns="http://www.w3.org/2000/svg" xmlns:xlink="http://www.w3.org/1999/xlink" viewBox="0 0 1000 1000"><defs><style>.cls-1{fill:url(#linear-gradient);}.cls-2{fill:url(#linear-gradient-2);}.cls-3{fill:url(#linear-gradient-3);}.cls-4{fill:url(#linear-gradient-4);}.cls-5{fill:#3d6dff;}.cls-6{fill:#ededed;}</style><linearGradient id="linear-gradient" x1="972.1" y1="767.8" x2="41.11" y2="243.63" gradientTransform="matrix(1, 0, 0, -1, 0, 1002)" gradientUnits="userSpaceOnUse"><stop offset="0" stop-color="#b50cfb"/><stop offset="0.49" stop-color="#3d6dff"/><stop offset="1" stop-color="#4dc5ca"/></linearGradient><linearGradient id="linear-gradient-2" x1="990.27" y1="704.86" x2="-14.68" y2="373.86" xlink:href="#linear-gradient"/><linearGradient id="linear-gradient-3" x1="1080.29" y1="705.7" x2="198.77" y2="2.3" xlink:href="#linear-gradient"/><linearGradient id="linear-gradient-4" x1="930.89" y1="742.45" x2="21.23" y2="378.68" xlink:href="#linear-gradient"/></defs><path class="cls-1" d="M884.08,376.59V722L500,943.78,115.66,722V278.24L500,56.22,795.32,226.8l44.51-25.59L500,4.78,71.15,252.39V747.61L500,995.22,928.85,747.61V350.74Z"/><path class="cls-2" d="M392.34,722H328.1V506.39H542.4a77.34,77.34,0,0,0,76.22-77A78.53,78.53,0,0,0,613,400.05a74.6,74.6,0,0,0-16.79-24.53,77.4,77.4,0,0,0-24.53-16.79,73.77,73.77,0,0,0-29.31-5.86H328.1V287.3H542.66a142.9,142.9,0,0,1,141.8,141.8,136.94,136.94,0,0,1-25.06,80.23A141.9,141.9,0,0,1,597.57,560a241.85,241.85,0,0,1-76.76,11.46H392.34Z"/><path class="cls-3" d="M683.11,716.69h-74.9l-57.83-101a250.72,250.72,0,0,0,67.16-13.6Z"/><path class="cls-4" d="M839.3,304.63l44.51,24.79,44.24-24.52v-52l-44.24-25.59-44.24,25.59v51.71Z"/><polygon class="cls-5" points="209.09 903.67 194.44 860.44 147.12 860.44 132.48 903.67 4.33 903.67 115.09 597.56 227.17 597.56 337.93 903.67 209.09 903.67"/><polygon class="cls-5" points="507.89 903.67 507.89 896.33 505.15 903.67 414.45 903.67 411.34 895.34 411.34 903.67 290.35 903.67 290.35 597.56 412.13 597.56 459.99 715.63 507.37 597.56 628.88 597.56 628.88 903.67 507.89 903.67"/><polygon class="cls-5" points="827.92 903.67 827.92 896.33 825.18 903.67 734.49 903.67 731.37 895.35 731.37 903.67 610.38 903.67 610.38 597.56 732.17 597.56 780.02 715.63 827.4 597.56 948.91 597.56 948.91 903.67 827.92 903.67"/><path class="cls-6" d="M216.45,829.75H125.11L110.47,873H48.07l88.55-244.73h69L294.19,873h-63.1Zm-15.34-46-30.33-89.59-30,89.59Z"/><path class="cls-6" d="M598.19,628.25V873H538.57V726.21L483.84,873H435.73L380.65,725.86V873H321V628.25h70.42l68.68,169.43,68-169.43Z"/><path class="cls-6" d="M918.22,628.25V873H858.61V726.21L803.88,873H755.77L700.68,725.86V873H641.07V628.25h70.42l68.68,169.43,68-169.43Z"/></svg>