<svg xmlns="http://www.w3.org/2000/svg" xmlns:xlink="http://www.w3.org/1999/xlink" viewBox="0 0 1000 1000"><defs><style>.cls-1{fill:url(#linear-gradient);}.cls-2{fill:url(#linear-gradient-2);}.cls-3{fill:url(#linear-gradient-3);}.cls-4{fill:url(#linear-gradient-4);}.cls-5{fill:#a100ff;}.cls-6{fill:#ededed;}</style><linearGradient id="linear-gradient" x1="974.68" y1="768.76" x2="40.35" y2="242.7" gradientTransform="matrix(1, 0, 0, -1, 0, 1002)" gradientUnits="userSpaceOnUse"><stop offset="0" stop-color="#b50cfb"/><stop offset="0.49" stop-color="#3d6dff"/><stop offset="1" stop-color="#4dc5ca"/></linearGradient><linearGradient id="linear-gradient-2" x1="992.92" y1="705.59" x2="-15.64" y2="373.4" xlink:href="#linear-gradient"/><linearGradient id="linear-gradient-3" x1="1083.27" y1="706.43" x2="198.58" y2="0.5" xlink:href="#linear-gradient"/><linearGradient id="linear-gradient-4" x1="933.32" y1="743.31" x2="20.4" y2="378.24" xlink:href="#linear-gradient"/></defs><g id="Layer_1_copy" data-name="Layer 1 copy"><path class="cls-1" d="M886.35,376.15V722.82L500.89,945.37,115.17,722.82V277.45L500.89,54.63,797.27,225.82l44.67-25.68L500.89,3,70.5,251.5v497L500.89,997,931.28,748.5V350.2Z"/><path class="cls-2" d="M392.84,722.81H328.37V506.42H543.44a77.65,77.65,0,0,0,76.5-77.31,78.73,78.73,0,0,0-5.62-29.42,74.59,74.59,0,0,0-16.85-24.61,77.48,77.48,0,0,0-24.61-16.85,74,74,0,0,0-29.42-5.89H328.37v-65.8H543.7A143.39,143.39,0,0,1,686,428.84a137.48,137.48,0,0,1-25.14,80.52,142.4,142.4,0,0,1-62.06,50.82,242.19,242.19,0,0,1-77,11.5H392.84Z"/><path class="cls-3" d="M684.65,717.47H609.49l-58-101.38a251.64,251.64,0,0,0,67.4-13.64Z"/><path class="cls-4" d="M841.41,303.93l44.67,24.88,44.4-24.61V252l-44.4-25.67L841.68,252v51.9Z"/><path class="cls-5" d="M154.79,884c-25,0-48-5.8-68.19-17.25a125,125,0,0,1-48.44-48.81c-11.26-20.27-17-43.37-17-68.65s5.7-48.37,16.93-68.72a124.77,124.77,0,0,1,48.48-49c20.24-11.45,43.19-17.25,68.19-17.25,30.83,0,58,8.53,80.62,25.33,23.06,17.1,38.62,40.48,46.26,69.5l9.43,35.84h2.28l-1.14,4.33,1.14,4.33H291.1l-9.43,35.83c-7.65,29.07-23.25,52.43-46.36,69.44C212.66,875.5,185.58,884,154.79,884Zm-.55-155.41c-5.61,0-7.44,1.55-9.1,3.42-3.08,3.45-4.65,9.27-4.65,17.28s1.56,13.81,4.64,17.27c1.67,1.87,3.5,3.42,9.11,3.42a11.17,11.17,0,0,0,6.13-1.38c.49-.29,1.51-.9,2.73-3.45l7.57-15.87-7.57-15.85c-1.22-2.56-2.25-3.18-2.75-3.48A11.29,11.29,0,0,0,154.24,728.54Z"/><path class="cls-5" d="M241.09,882.56V616.47H353.56c21.05,0,39.67,4,55.34,11.8,17.11,8.57,30.27,20.82,39.15,36.43,8.43,14.83,12.71,31.67,12.71,50.06A98.24,98.24,0,0,1,448.53,763c-8.54,15.4-21.4,27.76-38.22,36.75-14.42,7.7-31.47,12-50.75,12.69v70.17Z"/><polygon class="cls-5" points="414.56 882.56 414.56 616.47 530.08 616.47 560.79 692.22 591.18 616.47 706.51 616.47 706.51 882.56 414.56 882.56"/><polygon class="cls-5" points="669.77 882.56 669.77 616.47 785.29 616.47 816 692.22 846.39 616.47 961.72 616.47 961.72 882.56 669.77 882.56"/><path class="cls-6" d="M69.17,697.67a89.36,89.36,0,0,1,34.89-35.31q22.36-12.65,50.73-12.65,34.76,0,59.5,18.35t33.08,50H195.1a42.25,42.25,0,0,0-16.54-18.63,46.53,46.53,0,0,0-24.32-6.39q-22,0-35.59,15.29T105,749.24q0,25.57,13.62,40.86t35.59,15.29A46.53,46.53,0,0,0,178.56,799a42.19,42.19,0,0,0,16.54-18.63h52.27q-8.34,31.7-33.08,49.9t-59.5,18.21q-28.35,0-50.73-12.65a89.63,89.63,0,0,1-34.89-35.16q-12.51-22.53-12.51-51.43T69.17,697.67Z"/><path class="cls-6" d="M417.51,745.76q-7.78,14-23.91,22.66t-40,8.62H324.1v70.05H276.56V651.93h77q23.35,0,39.48,8.07t24.19,22.24q8.06,14.18,8.06,32.52A62.94,62.94,0,0,1,417.51,745.76Zm-47.26-12.93q6.66-6.39,6.67-18.07t-6.67-18.07q-6.67-6.39-20.3-6.39H324.1v48.93H350Q363.57,739.23,370.25,732.83Z"/><path class="cls-6" d="M671.05,651.93V847.09H623.51v-117l-43.65,117H541.49L497.57,729.77V847.09H450V651.93h56.16L561,787l54.22-135.11Z"/><path class="cls-6" d="M926.25,651.93V847.09H878.71v-117l-43.64,117H796.7L752.78,729.77V847.09H705.24V651.93H761.4L816.16,787l54.21-135.11Z"/></g></svg>