<svg xmlns="http://www.w3.org/2000/svg" xmlns:xlink="http://www.w3.org/1999/xlink" viewBox="0 0 1000 1000"><defs><style>.cls-1{fill:url(#linear-gradient);}.cls-2{fill:url(#linear-gradient-2);}.cls-3{fill:url(#linear-gradient-3);}.cls-4{fill:url(#linear-gradient-4);}.cls-5{fill:#ed1c24;}.cls-6{fill:#ededed;}</style><linearGradient id="linear-gradient" x1="957.35" y1="768.76" x2="23.02" y2="242.7" gradientTransform="matrix(1, 0, 0, -1, 0, 1002)" gradientUnits="userSpaceOnUse"><stop offset="0" stop-color="#b50cfb"/><stop offset="0.49" stop-color="#3d6dff"/><stop offset="1" stop-color="#4dc5ca"/></linearGradient><linearGradient id="linear-gradient-2" x1="975.58" y1="705.59" x2="-32.98" y2="373.4" xlink:href="#linear-gradient"/><linearGradient id="linear-gradient-3" x1="1065.93" y1="706.43" x2="181.24" y2="0.5" xlink:href="#linear-gradient"/><linearGradient id="linear-gradient-4" x1="915.99" y1="743.31" x2="3.07" y2="378.24" xlink:href="#linear-gradient"/></defs><g id="Layer_1_copy_2" data-name="Layer 1 copy 2"><path class="cls-1" d="M869,376.15V722.82L483.56,945.37,97.83,722.82V277.45L483.56,54.63,779.94,225.82l44.67-25.68L483.56,3,53.16,251.5v497L483.56,997,914,748.5V350.2Z"/><path class="cls-2" d="M375.51,722.81H311V506.42H526.1a77.65,77.65,0,0,0,76.51-77.31A78.92,78.92,0,0,0,597,399.69a74.59,74.59,0,0,0-16.85-24.61,77.7,77.7,0,0,0-24.61-16.85,74,74,0,0,0-29.43-5.89H311v-65.8H526.37a143.39,143.39,0,0,1,142.31,142.3,137.49,137.49,0,0,1-25.15,80.52,142.34,142.34,0,0,1-62.06,50.82,242.09,242.09,0,0,1-77,11.5H375.51Z"/><path class="cls-3" d="M667.32,717.47H592.16l-58-101.38a251.71,251.71,0,0,0,67.41-13.64Z"/><path class="cls-4" d="M824.08,303.93l44.67,24.88,44.4-24.61V252l-44.4-25.67L824.34,252v51.9Z"/><path class="cls-5" d="M153.71,873.11c-24.78,0-47.51-5.75-67.55-17.08a123.86,123.86,0,0,1-48-48.36c-11.15-20.08-16.81-43-16.81-68S27,691.76,38.14,671.61a123.66,123.66,0,0,1,48-48.58c20-11.33,42.78-17.08,67.55-17.08,30.53,0,57.4,8.45,79.85,25.09,22.84,16.94,38.26,40.1,45.82,68.85l9.34,35.49H291l-1.13,4.29L291,744h-2.26l-9.34,35.49c-7.58,28.8-23,51.94-45.92,68.79C211,864.74,184.2,873.11,153.71,873.11Zm-.55-153.94c-5.55,0-7.37,1.54-9,3.39-3,3.42-4.6,9.18-4.6,17.11s1.55,13.69,4.59,17.11c1.66,1.86,3.47,3.38,9,3.38,3.4,0,5.1-.77,6.07-1.36.49-.28,1.49-.89,2.7-3.42l7.5-15.71L161.93,724c-1.21-2.54-2.22-3.15-2.72-3.44A11.2,11.2,0,0,0,153.16,719.17Z"/><path class="cls-5" d="M239.19,871.73V608.16H350.6c20.85,0,39.29,3.93,54.81,11.69,16.95,8.48,30,20.62,38.78,36.08,8.35,14.69,12.59,31.37,12.59,49.59a97.28,97.28,0,0,1-12.12,47.74c-8.46,15.25-21.19,27.49-37.85,36.39-14.28,7.64-31.17,11.86-50.27,12.58v69.5Z"/><polygon class="cls-5" points="411.02 871.73 411.02 608.16 525.45 608.16 555.86 683.2 585.97 608.16 700.21 608.16 700.21 871.73 411.02 871.73"/><polygon class="cls-5" points="663.82 871.73 663.82 608.16 778.24 608.16 808.65 683.2 838.76 608.16 953 608.16 953 871.73 663.82 871.73"/><path class="cls-6" d="M68.89,688.59a88.53,88.53,0,0,1,34.56-35q22.17-12.54,50.26-12.54,34.41,0,58.93,18.18t32.77,49.57H193.64a41.81,41.81,0,0,0-16.39-18.45A46.1,46.1,0,0,0,153.16,684q-21.76,0-35.25,15.15t-13.5,40.48q0,25.33,13.5,40.48t35.25,15.14A46,46,0,0,0,177.25,789a41.81,41.81,0,0,0,16.39-18.45h51.77q-8.26,31.4-32.77,49.43t-58.93,18q-28.1,0-50.26-12.53a88.79,88.79,0,0,1-34.56-34.84Q56.5,768.31,56.5,739.67T68.89,688.59Z"/><path class="cls-6" d="M413.94,736.23q-7.72,13.9-23.69,22.44t-39.65,8.54H321.41V836.6H274.32V643.29H350.6q23.13,0,39.1,8t24,22q8,14.06,8,32.22A62.38,62.38,0,0,1,413.94,736.23Zm-46.82-12.81q6.61-6.33,6.61-17.9t-6.61-17.9q-6.6-6.33-20.1-6.33H321.41v48.47H347Q360.51,729.76,367.12,723.42Z"/><path class="cls-6" d="M665.08,643.29V836.6H618V720.67L574.75,836.6h-38L493.24,720.39V836.6H446.15V643.29h55.63L556,777.12l53.7-133.83Z"/><path class="cls-6" d="M917.87,643.29V836.6H870.78V720.67L827.55,836.6h-38L746,720.39V836.6H699V643.29h55.62l54.25,133.83,53.7-133.83Z"/></g></svg>